<svg version="1.1" id="Layer_1" xmlns="http://www.w3.org/2000/svg" xmlns:xlink="http://www.w3.org/1999/xlink" x="0px" y="0px"
	 width="100%" viewBox="0 0 1024 1024" enable-background="new 0 0 1024 1024" xml:space="preserve">
<path fill="#000000" opacity="1.000000" stroke="none" 
	d="
M784.244812,434.731140 
	C817.939148,464.070892 838.730591,500.383026 845.938965,544.145813 
	C851.369690,577.116089 849.065552,609.793030 840.619507,642.086426 
	C825.631775,699.391724 794.208618,746.259705 750.006775,785.039246 
	C748.504395,786.357239 747.125671,787.819336 745.593323,789.099365 
	C740.905762,793.014465 735.634277,794.703125 729.838867,792.054321 
	C723.897766,789.338928 720.645508,784.669189 720.656067,777.872559 
	C720.702698,747.875000 720.674988,717.877258 720.674194,687.879578 
	C720.674133,686.230286 720.674194,684.580994 720.674194,682.931702 
	C701.231018,715.881104 675.677063,742.909180 643.386841,763.981812 
	C648.171448,772.230591 652.663452,779.980774 657.160828,787.727844 
	C671.295532,812.075928 685.476440,836.397278 699.549927,860.780579 
	C706.912048,873.536011 700.027405,884.807312 684.720886,884.873718 
	C654.557007,885.004395 624.392334,884.939941 594.227966,884.942017 
	C510.567902,884.947815 426.907806,884.948303 343.247742,884.935059 
	C341.253296,884.934753 339.236938,884.902649 337.268066,884.622925 
	C326.129272,883.040649 320.447113,872.843506 325.432831,862.756836 
	C328.673370,856.200745 332.660248,850.012085 336.342621,843.676208 
	C350.824707,818.758484 365.320557,793.848816 379.803223,768.931519 
	C380.633453,767.502991 381.391815,766.032837 382.533112,763.941650 
	C350.449188,742.950134 324.941986,715.801086 305.305969,682.539307 
	C305.305969,684.280823 305.305573,686.022278 305.306000,687.763794 
	C305.313538,717.594849 305.229706,747.426331 305.397858,777.256531 
	C305.436279,784.074646 302.574188,788.853821 296.798065,791.815857 
	C290.883331,794.849060 285.553223,793.065430 280.684021,788.949524 
	C232.872055,748.535461 199.465057,698.930969 184.328613,637.726807 
	C178.131638,612.669373 175.675613,587.178772 177.894928,561.462769 
	C182.967834,502.681519 209.805939,456.199677 257.878479,421.954071 
	C265.627045,416.434204 273.773163,411.566772 281.832855,406.546021 
	C287.054199,403.293396 292.343445,402.421478 297.836334,405.684723 
	C303.206543,408.875153 305.372070,413.698730 305.364136,419.904938 
	C305.299164,470.734314 304.936981,521.567627 305.423370,572.392456 
	C306.193878,652.905518 354.495453,725.123230 429.990997,756.973816 
	C459.988129,769.629150 491.239685,775.250977 523.600891,773.574890 
	C613.877625,768.899109 690.884827,709.087402 713.959106,621.469055 
	C718.555664,604.015137 720.815857,586.294556 720.747070,568.192139 
	C720.559021,518.696594 720.669128,469.199860 720.692505,419.703613 
	C720.696533,411.184784 725.988525,404.695343 733.479553,403.754150 
	C737.129700,403.295563 740.378662,404.344513 743.471252,406.189056 
	C757.656067,414.649261 771.490662,423.607025 784.244812,434.731140 
M600.584106,827.943298 
	C610.046204,820.503662 623.736633,828.743713 623.291382,840.660583 
	C623.148499,844.484802 623.420837,848.327393 623.207520,852.145142 
	C623.010193,855.675781 624.477905,856.800476 627.890564,856.738647 
	C636.545349,856.581848 645.205200,856.734070 653.862549,856.678833 
	C656.932678,856.659241 660.071899,857.068726 663.542419,856.090454 
	C662.754517,854.269531 662.305115,852.854736 661.576416,851.602478 
	C647.930359,828.154114 634.206421,804.750854 620.634644,781.259644 
	C618.913452,778.280457 617.257385,778.473389 614.585693,779.758362 
	C601.352234,786.123169 587.598999,791.116638 573.294983,794.460571 
	C569.560974,795.333496 568.204468,797.052185 568.258911,800.950256 
	C568.463623,815.598755 568.320984,830.252014 568.337158,844.903442 
	C568.350098,856.670654 568.368469,856.670593 580.373962,856.674377 
	C580.873413,856.674500 581.372925,856.674744 581.872375,856.674988 
	C594.748291,856.680786 594.839233,856.679810 594.702942,843.873901 
	C594.640564,838.019531 595.243713,832.545837 600.584106,827.943298 
M392.760468,803.195679 
	C382.606079,820.659912 372.451721,838.124207 361.674774,856.659119 
	C375.354401,856.659119 387.623566,856.667969 399.892761,856.651794 
	C402.391998,856.648499 402.828705,854.951050 402.821320,852.919922 
	C402.805603,848.588623 402.652710,844.250488 402.838654,839.927368 
	C403.205597,831.396545 409.191223,825.154541 416.782867,825.145569 
	C424.889618,825.135986 431.191132,831.757141 431.301636,840.451538 
	C431.350311,844.282532 431.516235,848.128418 431.258057,851.942444 
	C430.998505,855.776733 432.638947,856.883850 436.233093,856.745544 
	C441.722473,856.534424 447.231659,856.543213 452.721649,856.747559 
	C456.307190,856.881104 457.753937,855.754272 457.718140,851.936584 
	C457.557220,834.779053 457.518219,817.617493 457.741272,800.461365 
	C457.792053,796.557495 456.098724,795.220093 452.778107,794.421814 
	C438.493225,790.987732 424.676270,786.161316 411.436005,779.795166 
	C408.361359,778.316833 406.650574,778.843933 405.043640,781.755432 
	C401.181793,788.752441 397.125824,795.642334 392.760468,803.195679 
M774.769592,464.728119 
	C767.290283,457.203552 759.043396,450.654816 749.923157,444.283844 
	C749.564880,445.749451 749.287048,446.357574 749.286377,446.966064 
	C749.265869,465.279785 749.304077,483.593628 749.240540,501.907135 
	C749.231201,504.588684 750.632324,506.183319 752.511108,507.705994 
	C765.702026,518.396362 778.878296,529.104858 792.042664,539.828064 
	C801.026428,547.145996 809.983154,554.497192 819.495239,562.277832 
	C816.302734,524.063477 801.593201,491.997772 774.769592,464.728119 
M227.550964,545.031799 
	C242.807312,532.638367 258.026611,520.198792 273.355743,507.896027 
	C275.970856,505.797241 276.914917,503.435486 276.896820,500.169006 
	C276.802612,483.174683 276.881744,466.179413 276.854065,449.184570 
	C276.851746,447.768219 277.329193,446.166382 275.992981,444.997742 
	C243.221603,459.641327 205.410614,523.344299 207.132874,561.635132 
	C213.950058,556.100891 220.481903,550.798279 227.550964,545.031799 
M771.820007,609.666199 
	C784.526489,620.820862 797.232971,631.975525 810.313782,643.458740 
	C810.995056,641.604248 811.452332,640.547424 811.775391,639.451111 
	C815.071594,628.265747 816.911926,616.794006 818.907288,605.326233 
	C819.769226,600.372131 818.284851,597.900757 814.638245,594.973938 
	C794.248657,578.608582 774.099060,561.944458 753.841125,545.414551 
	C752.642578,544.436584 751.635864,542.806885 749.276062,543.531982 
	C749.276062,558.126404 749.298706,572.765686 749.254333,587.404785 
	C749.246643,589.932312 750.895691,591.289856 752.515808,592.719604 
	C758.759094,598.229309 765.018066,603.721252 771.820007,609.666199 
M262.216919,553.740479 
	C244.695480,568.078552 227.203812,582.453369 209.613724,596.706726 
	C207.494904,598.423584 207.016327,600.289612 207.188995,602.780823 
	C207.927414,613.434021 209.903488,623.866577 212.771255,634.127014 
	C213.547699,636.905029 213.458542,640.108459 215.749298,642.140747 
	C216.964478,642.408875 217.586960,641.806580 218.203598,641.266296 
	C236.740479,625.027100 255.253311,608.760254 273.826721,592.562927 
	C276.026672,590.644409 276.899109,588.495117 276.878387,585.594360 
	C276.786835,572.769775 276.882568,559.943970 276.840057,547.118835 
	C276.835602,545.772827 277.517517,544.078430 275.311188,542.965210 
	C271.205414,546.354065 266.994934,549.829407 262.216919,553.740479 
M253.811874,719.701355 
	C260.849915,728.654907 267.866425,737.627319 276.491791,745.958374 
	C276.491791,706.679932 276.491791,668.066101 276.491791,629.456909 
	C274.778534,629.371155 273.953186,630.250977 273.100067,631.000427 
	C258.478729,643.845459 243.921051,656.763672 229.210236,669.505188 
	C226.501328,671.851440 226.557312,673.902405 227.974365,676.828064 
	C235.175949,691.696533 243.573990,705.831299 253.811874,719.701355 
M749.249634,721.500000 
	C749.249634,729.204895 749.249634,736.909790 749.249634,745.531860 
	C750.784058,744.323181 751.352478,743.979126 751.792603,743.513855 
	C771.060059,723.144531 786.787231,700.352661 798.851807,675.021301 
	C800.164429,672.265259 798.700623,671.092163 797.018677,669.625427 
	C782.330383,656.817017 767.666870,643.979980 752.963379,631.189026 
	C752.046204,630.391113 751.276611,629.001587 749.253235,629.692200 
	C749.253235,659.904785 749.253235,690.202393 749.249634,721.500000 
M485.425964,844.464417 
	C485.415466,846.296692 485.393616,848.128906 485.396515,849.961182 
	C485.407074,856.650391 485.410156,856.664734 491.970306,856.672546 
	C505.962311,856.689148 519.957031,856.535583 533.944702,856.785828 
	C538.390015,856.865234 539.837524,855.584412 540.227051,850.982971 
	C541.510071,835.827576 539.003052,820.683350 540.516785,805.553040 
	C540.869019,802.032471 538.896423,800.808228 535.565308,801.178284 
	C520.445557,802.858032 505.314545,802.434265 490.199371,801.178345 
	C486.333191,800.856995 485.098694,802.422485 485.406921,806.036377 
	C486.471039,818.512756 484.847595,830.995850 485.425964,844.464417 
z"/>
<path fill="#000000" opacity="1.000000" stroke="none" 
	d="
M277.621582,309.797455 
	C280.473541,282.175781 292.091278,259.423615 312.062958,240.873230 
	C314.137207,238.946625 316.253510,237.065262 318.327240,235.138123 
	C318.545197,234.935593 318.606598,234.564575 318.877472,233.972778 
	C310.126495,226.425980 301.873169,218.298599 295.153687,208.678558 
	C284.638092,193.623795 278.337646,176.999100 275.874390,158.877472 
	C275.051056,152.820160 276.863678,147.662857 281.941864,143.954575 
	C287.062897,140.215012 292.350464,140.187210 297.877533,143.182693 
	C316.619904,153.340469 337.027679,156.842743 357.990479,157.662979 
	C374.121063,158.294144 390.312500,157.007004 406.402802,159.100876 
	C408.329254,159.351562 409.990387,158.601425 411.712952,157.994781 
	C440.500305,147.856689 470.164215,142.771286 500.657654,141.554871 
	C539.707397,139.997147 577.644470,145.336411 614.519836,158.184402 
	C617.379578,159.180771 620.068176,159.012253 622.847961,158.673584 
	C636.799622,156.973694 650.809692,158.096298 664.787476,157.723282 
	C686.980408,157.131042 708.463074,153.395340 728.468567,143.193619 
	C734.016968,140.364243 739.529114,140.590332 744.503540,144.253036 
	C749.356750,147.826492 750.853394,153.064041 750.129211,158.903549 
	C747.208191,182.458130 737.638855,202.938416 721.464783,220.302536 
	C716.947021,225.152832 712.226868,229.811432 706.627747,234.158127 
	C736.134583,258.729401 750.997437,289.780060 749.044495,327.723083 
	C747.602966,355.729828 736.203979,379.876740 716.041382,399.580658 
	C676.070129,438.642639 603.823608,445.199219 555.774536,394.509277 
	C551.423645,401.715698 547.198608,408.782196 542.905579,415.807129 
	C537.433655,424.761200 532.045044,433.770630 526.369324,442.594696 
	C518.889648,454.223450 506.781372,454.078552 499.545197,442.339600 
	C491.066162,428.584381 482.723938,414.744873 474.306030,400.951874 
	C473.099915,398.975555 471.802216,397.055145 470.353882,394.809692 
	C464.998779,399.407806 460.118317,404.106354 454.739136,408.139832 
	C390.720398,456.142639 299.894073,424.197784 280.297668,347.837067 
	C277.136871,335.520630 275.644592,322.983246 277.621582,309.797455 
M479.092010,259.472015 
	C482.555817,264.585327 485.739655,269.878357 488.241608,275.519073 
	C496.082184,293.195953 499.709717,311.598480 497.462433,330.976166 
	C496.905151,335.781464 497.203827,337.400513 503.060120,336.068787 
	C509.712341,334.556030 516.602112,334.653717 523.397339,335.875153 
	C525.126648,336.185974 526.849792,337.260040 529.069458,335.795532 
	C527.478333,326.400421 527.603271,316.747009 528.894226,307.203003 
	C533.186279,275.473236 548.397583,249.973083 574.593140,231.696259 
	C605.181335,210.354706 638.690430,206.397263 674.134399,217.422485 
	C676.487549,218.154449 678.650696,219.221466 681.200439,217.441238 
	C693.642090,208.754684 704.508362,198.583725 712.135193,185.300095 
	C713.070068,183.671844 714.605103,182.112793 713.936707,179.652512 
	C713.278076,179.652512 712.611877,179.513565 712.026611,179.672592 
	C690.595520,185.496002 668.702209,186.708786 646.645630,186.197586 
	C637.300049,185.981003 627.951965,186.173370 618.731506,187.597260 
	C580.788818,193.456650 549.971436,211.586853 526.295471,241.842621 
	C517.982910,252.465317 507.834595,252.213501 499.464294,241.480423 
	C483.883209,221.501068 464.607849,206.291458 441.012512,196.745453 
	C418.977386,187.830643 395.966003,185.561722 372.427155,186.149170 
	C352.887146,186.636841 333.513275,184.983826 314.579987,179.685928 
	C313.555756,179.399323 312.366516,178.827286 311.238586,180.232346 
	C317.945190,195.021408 328.896759,206.139633 341.954895,215.510147 
	C345.669525,218.175766 349.130066,218.774078 353.528595,217.079102 
	C361.484741,214.013184 369.914062,212.268112 378.375946,211.867218 
	C420.001709,209.895065 453.834961,224.880936 479.092010,259.472015 
M308.071136,342.458282 
	C319.107422,382.685272 358.859344,408.004608 400.817657,401.531738 
	C451.099518,393.774780 482.203674,341.341370 464.875519,293.547058 
	C444.747070,238.029007 372.106567,221.389954 330.064667,262.864655 
	C307.839630,284.789764 300.923859,311.364471 308.071136,342.458282 
M567.858337,362.670563 
	C589.268555,397.994995 633.009216,412.034180 671.103577,395.808624 
	C711.133911,378.758453 731.121826,334.185638 715.885315,293.484070 
	C704.484741,263.029694 681.773621,244.961563 649.498901,240.595703 
	C621.840637,236.854324 597.487915,245.327499 578.389099,265.836487 
	C553.170776,292.916718 549.415466,329.572601 567.858337,362.670563 
M552.627808,172.071640 
	C522.393250,167.939240 492.295319,168.196609 462.183685,174.008682 
	C462.647095,176.022034 463.641998,176.314941 464.516510,176.753937 
	C481.626648,185.342865 496.766479,196.629822 510.031250,210.391327 
	C512.423096,212.872772 513.784546,212.602905 515.999329,210.288361 
	C528.750427,196.963058 543.421082,186.148254 559.650146,177.414169 
	C560.736816,176.829330 562.283569,176.541214 562.258118,174.794388 
	C558.997925,172.733276 558.704895,172.646637 552.627808,172.071640 
M493.554779,367.919098 
	C492.158264,368.762665 490.510284,369.301331 489.803558,370.961639 
	C492.834167,378.459442 510.270020,406.941925 513.770264,409.670166 
	C514.059570,409.166992 514.384521,408.585022 514.724792,408.011993 
	C521.593018,396.445160 528.421631,384.854370 535.363342,373.331787 
	C536.988708,370.633942 535.685852,369.502533 533.473267,368.371796 
	C520.500854,361.742188 507.423706,361.293549 493.554779,367.919098 
z"/>
<path fill="#000000" opacity="1.000000" stroke="none" 
	d="
M439.542236,301.658691 
	C452.569885,339.683838 425.243134,377.213104 385.645966,376.232849 
	C357.210785,375.528900 333.124329,352.503510 331.907196,323.894958 
	C330.687225,295.218445 350.119781,271.156189 378.473114,266.653625 
	C404.796295,262.473450 429.964020,276.890778 439.542236,301.658691 
M370.094208,300.561890 
	C364.609924,305.138885 361.223969,311.032288 360.422241,318.042572 
	C358.748169,332.681152 370.252380,346.647552 384.451111,347.659943 
	C400.444977,348.800354 413.842102,337.734650 414.568848,322.340668 
	C415.097656,311.138702 409.959747,302.656494 400.140778,297.490540 
	C389.935028,292.121155 379.936157,293.131561 370.094208,300.561890 
z"/>
<path fill="#000000" opacity="1.000000" stroke="none" 
	d="
M603.388855,278.333740 
	C636.846863,253.312576 682.393433,268.470032 692.672180,307.730774 
	C700.933289,339.285126 678.894958,371.427338 646.245667,375.442261 
	C616.484924,379.102020 590.688904,361.653961 584.420654,332.712494 
	C579.762939,311.207031 586.488098,293.023926 603.388855,278.333740 
M630.111755,295.424438 
	C628.592529,296.101196 627.019043,296.678192 625.562683,297.470459 
	C613.001038,304.303986 607.972961,319.317352 613.879028,332.244965 
	C619.492065,344.531158 634.732605,350.833252 647.590820,346.184967 
	C661.307312,341.226471 668.777161,326.865417 664.699158,313.293640 
	C660.491394,299.289948 645.801636,291.438293 630.111755,295.424438 
z"/>
</svg>